{
  "accessors": [
    {
      "bufferView": 2,
      "componentType": 5126,
      "count": 165,
      "max": [
        4.391369819641113,
        2.0421700477600098,
        16.765499114990234
      ],
      "min": [
        -0.33160001039505005,
        -0.5896599888801575,
        -0.012149999849498272
      ],
      "type": "VEC3"
    },
    {
      "bufferView": 2,
      "byteOffset": 1980,
      "componentType": 5126,
      "count": 165,
      "max": [
        0.9990416765213013,
        0.9996995329856873,
        0.9986265301704407
      ],
      "min": [
        -0.9986851215362549,
        -0.999455988407135,
        -0.5357301235198975
      ],
      "type": "VEC3"
    },
    {
      "bufferView": 1,
      "componentType": 5126,
      "count": 165,
      "max": [
        0.8097800016403198,
        0.9645799994468689
      ],
      "min": [
        0.045990001410245895,
        0.16410000622272491
      ],
      "type": "VEC2"
    },
    {
      "bufferView": 0,
      "componentType": 5125,
      "count": 696,
      "type": "SCALAR"
    },
    {
      "bufferView": 2,
      "byteOffset": 3960,
      "componentType": 5126,
      "count": 368,
      "max": [
        2.391040086746216,
        1.6837799549102783,
        6.834559917449951
      ],
      "min": [
        -2.365339994430542,
        -1.5573300123214722,
        0.3261300027370453
      ],
      "type": "VEC3"
    },
    {
      "bufferView": 2,
      "byteOffset": 8376,
      "componentType": 5126,
      "count": 368,
      "max": [
        0.6305503249168396,
        0.5806885361671448,
        0.9998658299446106
      ],
      "min": [
        -0.4870471656322479,
        -0.49911588430404663,
        0.6523695588111877
      ],
      "type": "VEC3"
    },
    {
      "bufferView": 1,
      "byteOffset": 1320,
      "componentType": 5126,
      "count": 368,
      "max": [
        0.9610499739646912,
        0.9841399788856506
      ],
      "min": [
        0.6179699897766113,
        0.007180000189691782
      ],
      "type": "VEC2"
    },
    {
      "bufferView": 0,
      "byteOffset": 2784,
      "componentType": 5125,
      "count": 1152,
      "type": "SCALAR"
    },
    {
      "bufferView": 2,
      "byteOffset": 12792,
      "componentType": 5126,
      "count": 154,
      "max": [
        2.0980401039123535,
        0.5576500296592712,
        8.073240280151367
      ],
      "min": [
        -0.8119400143623352,
        -2.2324299812316895,
        7.018040180206299
      ],
      "type": "VEC3"
    },
    {
      "bufferView": 2,
      "byteOffset": 14640,
      "componentType": 5126,
      "count": 154,
      "max": [
        0.7996689677238464,
        0.7390641570091248,
        0.9814582467079163
      ],
      "min": [
        -0.7049869894981384,
        -0.6473219990730286,
        -0.9980204701423645
      ],
      "type": "VEC3"
    },
    {
      "bufferView": 1,
      "byteOffset": 4264,
      "componentType": 5126,
      "count": 154,
      "max": [
        0.8021299839019775,
        0.9894400238990784
      ],
      "min": [
        0.013570000417530537,
        0.05136999860405922
      ],
      "type": "VEC2"
    },
    {
      "bufferView": 0,
      "byteOffset": 7392,
      "componentType": 5125,
      "count": 600,
      "type": "SCALAR"
    },
    {
      "bufferView": 2,
      "byteOffset": 16488,
      "componentType": 5126,
      "count": 52,
      "max": [
        0.33673998713493347,
        -0.7137100100517273,
        6.667140007019043
      ],
      "min": [
        0.0946900025010109,
        -0.9582599997520447,
        6.387899875640869
      ],
      "type": "VEC3"
    },
    {
      "bufferView": 2,
      "byteOffset": 17112,
      "componentType": 5126,
      "count": 52,
      "max": [
        0.9253630042076111,
        0.9704242944717407,
        1.0
      ],
      "min": [
        -0.9253630042076111,
        -0.972976565361023,
        -1.0
      ],
      "type": "VEC3"
    },
    {
      "bufferView": 1,
      "byteOffset": 5496,
      "componentType": 5126,
      "count": 52,
      "max": [
        0.7222700119018555,
        0.958050012588501
      ],
      "min": [
        0.1497499942779541,
        0.009159999899566174
      ],
      "type": "VEC2"
    },
    {
      "bufferView": 0,
      "byteOffset": 9792,
      "componentType": 5125,
      "count": 240,
      "type": "SCALAR"
    }
  ],
  "asset": {
    "extras": {
      "author": "beepbopghh (https://sketchfab.com/beepbopghh)",
      "license": "CC-BY-4.0 (http://creativecommons.org/licenses/by/4.0/)",
      "source": "https://sketchfab.com/3d-models/low-poly-flower-e7553892ef3b4114bd0e510a6dc91d49",
      "title": "Low Poly Flower"
    },
    "generator": "Sketchfab-12.67.0",
    "version": "2.0"
  },
  "bufferViews": [
    {
      "buffer": 0,
      "byteLength": 10752,
      "name": "floatBufferViews",
      "target": 34963
    },
    {
      "buffer": 0,
      "byteLength": 5912,
      "byteOffset": 10752,
      "byteStride": 8,
      "name": "floatBufferViews",
      "target": 34962
    },
    {
      "buffer": 0,
      "byteLength": 17736,
      "byteOffset": 16664,
      "byteStride": 12,
      "name": "floatBufferViews",
      "target": 34962
    }
  ],
  "buffers": [
    {
      "byteLength": 34400,
      "uri": "scene.bin"
    }
  ],
  "extensionsUsed": [
    "KHR_materials_unlit"
  ],
  "images": [
    {
      "uri": "textures/Material_baseColor.png"
    }
  ],
  "materials": [
    {
      "doubleSided": true,
      "extensions": {
        "KHR_materials_unlit": {}
      },
      "name": "Material",
      "pbrMetallicRoughness": {
        "baseColorTexture": {
          "index": 0
        },
        "metallicFactor": 0.0
      }
    }
  ],
  "meshes": [
    {
      "name": "stem_0",
      "primitives": [
        {
          "attributes": {
            "NORMAL": 1,
            "POSITION": 0,
            "TEXCOORD_0": 2
          },
          "indices": 3,
          "material": 0,
          "mode": 4
        }
      ]
    },
    {
      "name": "leaf.001_0",
      "primitives": [
        {
          "attributes": {
            "NORMAL": 5,
            "POSITION": 4,
            "TEXCOORD_0": 6
          },
          "indices": 7,
          "material": 0,
          "mode": 4
        }
      ]
    },
    {
      "name": "crown.001_0",
      "primitives": [
        {
          "attributes": {
            "NORMAL": 9,
            "POSITION": 8,
            "TEXCOORD_0": 10
          },
          "indices": 11,
          "material": 0,
          "mode": 4
        }
      ]
    },
    {
      "name": "PLUM.001_0",
      "primitives": [
        {
          "attributes": {
            "NORMAL": 13,
            "POSITION": 12,
            "TEXCOORD_0": 14
          },
          "indices": 15,
          "material": 0,
          "mode": 4
        }
      ]
    }
  ],
  "nodes": [
    {
      "children": [
        1
      ],
      "matrix": [
        2.220446049250313e-16,
        5.053215392444312e-16,
        -1.0,
        0.0,
        -1.0,
        7.395570986446986e-32,
        -2.220446049250313e-16,
        0.0,
        -2.465190328815662e-32,
        1.0,
        5.053215392444312e-16,
        0.0,
        0.4112910032272339,
        -3.105426271064953e-17,
        0.13985596597194672,
        1.0
      ],
      "name": "Sketchfab_model"
    },
    {
      "children": [
        2,
        4,
        6,
        8,
        10,
        12,
        14,
        16
      ],
      "name": "Root"
    },
    {
      "children": [
        3
      ],
      "matrix": [
        0.46335000000000004,
        0.0,
        0.0,
        0.0,
        0.0,
        0.46335000000000004,
        0.0,
        0.0,
        0.0,
        0.0,
        0.46335000000000004,
        0.0,
        0.0,
        0.0,
        0.0,
        1.0
      ],
      "name": "stem"
    },
    {
      "mesh": 0,
      "name": "stem_0"
    },
    {
      "children": [
        5
      ],
      "name": "leaf.001"
    },
    {
      "mesh": 1,
      "name": "leaf.001_0"
    },
    {
      "children": [
        7
      ],
      "matrix": [
        0.6503400000000001,
        -0.3364000000000001,
        -0.6811000000000001,
        0.0,
        -0.4219800000000001,
        0.58556,
        -0.6921400000000002,
        0.0,
        0.6316600000000001,
        0.73753,
        0.23886000000000002,
        0.0,
        4.83908,
        4.75732,
        6.616569999999999,
        1.0
      ],
      "name": "Sun"
    },
    {
      "name": "Sun"
    },
    {
      "children": [
        9
      ],
      "matrix": [
        -0.8208000000000001,
        0.10250000000000001,
        0.5619400000000001,
        0.0,
        -0.5472,
        -0.4233200000000001,
        -0.72206,
        0.0,
        0.16387000000000002,
        -0.90016,
        0.40355,
        0.0,
        1.26219,
        -4.65222,
        8.915480000000002,
        1.0
      ],
      "name": "Sun.001"
    },
    {
      "name": "Sun.001"
    },
    {
      "children": [
        11
      ],
      "matrix": [
        0.3090200000000001,
        0.95106,
        0.0,
        0.0,
        -0.95106,
        0.3090200000000001,
        0.0,
        0.0,
        0.0,
        0.0,
        1.0,
        0.0,
        0.0,
        0.0,
        0.0,
        1.0
      ],
      "name": "crown.001"
    },
    {
      "mesh": 2,
      "name": "crown.001_0"
    },
    {
      "children": [
        13
      ],
      "matrix": [
        0.3090200000000001,
        0.95106,
        0.0,
        0.0,
        -0.95106,
        0.3090200000000001,
        0.0,
        0.0,
        0.0,
        0.0,
        1.0,
        0.0,
        0.0,
        0.0,
        0.0,
        1.0
      ],
      "name": "PLUM.001"
    },
    {
      "mesh": 3,
      "name": "PLUM.001_0"
    },
    {
      "children": [
        15
      ],
      "matrix": [
        0.7288800000000001,
        0.6605300000000001,
        -0.18008000000000002,
        0.0,
        0.18431000000000003,
        -0.44262000000000007,
        -0.87756,
        0.0,
        -0.6593600000000001,
        0.60645,
        -0.4443600000000001,
        0.0,
        -3.38309,
        3.01303,
        2.2164599999999997,
        1.0
      ],
      "name": "Sun.002"
    },
    {
      "name": "Sun.002"
    },
    {
      "children": [
        17
      ],
      "matrix": [
        0.94349,
        0.33070000000000005,
        0.021570000000000006,
        0.0,
        -0.3313900000000001,
        0.9409000000000001,
        0.06991000000000001,
        0.0,
        0.002830000000000001,
        -0.07310000000000001,
        0.99732,
        0.0,
        -2.65107,
        1.5059799999999999,
        16.17669,
        1.0
      ],
      "name": "Hemi"
    },
    {
      "name": "Hemi"
    }
  ],
  "samplers": [
    {
      "magFilter": 9729,
      "minFilter": 9987,
      "wrapS": 10497,
      "wrapT": 10497
    }
  ],
  "scene": 0,
  "scenes": [
    {
      "name": "Sketchfab_Scene",
      "nodes": [
        0
      ]
    }
  ],
  "textures": [
    {
      "sampler": 0,
      "source": 0
    }
  ]
}
