{
  "accessors": [
    {
      "bufferView": 2,
      "componentType": 5126,
      "count": 200,
      "max": [
        1.5414756536483765,
        2.4440648555755615,
        1.3500208854675293
      ],
      "min": [
        -0.7520022392272949,
        -0.0009708404541015625,
        -0.2310957908630371
      ],
      "type": "VEC3"
    },
    {
      "bufferView": 2,
      "byteOffset": 2400,
      "componentType": 5126,
      "count": 200,
      "max": [
        0.9292503595352173,
        0.39513057470321655,
        0.18721431493759155
      ],
      "min": [
        -0.9292503595352173,
        -0.395130455493927,
        -0.18721431493759155
      ],
      "type": "VEC3"
    },
    {
      "bufferView": 1,
      "componentType": 5126,
      "count": 200,
      "max": [
        0.10563640296459198,
        0.08185036480426788
      ],
      "min": [
        0.10563637316226959,
        0.08185034990310669
      ],
      "type": "VEC2"
    },
    {
      "bufferView": 0,
      "componentType": 5125,
      "count": 336,
      "type": "SCALAR"
    },
    {
      "bufferView": 2,
      "byteOffset": 4800,
      "componentType": 5126,
      "count": 4422,
      "max": [
        1.700729250907898,
        2.517259120941162,
        0.46533823013305664
      ],
      "min": [
        -0.9250563383102417,
        -1.5989512205123901,
        -2.454885482788086
      ],
      "type": "VEC3"
    },
    {
      "bufferView": 2,
      "byteOffset": 57864,
      "componentType": 5126,
      "count": 4422,
      "max": [
        0.9999451637268066,
        0.9900913238525391,
        0.9918069243431091
      ],
      "min": [
        -0.999945342540741,
        -0.9918593168258667,
        -0.9925382733345032
      ],
      "type": "VEC3"
    },
    {
      "bufferView": 1,
      "byteOffset": 1600,
      "componentType": 5126,
      "count": 4422,
      "max": [
        0.8464968204498291,
        0.48429232835769653
      ],
      "min": [
        0.438700795173645,
        0.017548473551869392
      ],
      "type": "VEC2"
    },
    {
      "bufferView": 0,
      "byteOffset": 1344,
      "componentType": 5125,
      "count": 6630,
      "type": "SCALAR"
    },
    {
      "bufferView": 2,
      "byteOffset": 110928,
      "componentType": 5126,
      "count": 336,
      "max": [
        0.8009032607078552,
        -0.550048828125,
        0.31525087356567383
      ],
      "min": [
        -0.025230377912521362,
        -0.8785228729248047,
        -0.14073944091796875
      ],
      "type": "VEC3"
    },
    {
      "bufferView": 2,
      "byteOffset": 114960,
      "componentType": 5126,
      "count": 336,
      "max": [
        0.8550307750701904,
        0.9177476167678833,
        0.9848112463951111
      ],
      "min": [
        -0.8550329208374023,
        -0.9177528619766235,
        -0.9848114848136902
      ],
      "type": "VEC3"
    },
    {
      "bufferView": 1,
      "byteOffset": 36976,
      "componentType": 5126,
      "count": 336,
      "max": [
        0.7969168424606323,
        0.4504670798778534
      ],
      "min": [
        0.7794800996780396,
        0.4204944968223572
      ],
      "type": "VEC2"
    },
    {
      "bufferView": 0,
      "byteOffset": 27864,
      "componentType": 5125,
      "count": 480,
      "type": "SCALAR"
    }
  ],
  "asset": {
    "extras": {
      "author": "EsiHere (https://sketchfab.com/EsiHere)",
      "license": "CC-BY-4.0 (http://creativecommons.org/licenses/by/4.0/)",
      "source": "https://sketchfab.com/3d-models/bee-low-poly-0416f30815d6422791746b379f802405",
      "title": "Bee (Low Poly)"
    },
    "generator": "Sketchfab-13.15.0",
    "version": "2.0"
  },
  "bufferViews": [
    {
      "buffer": 0,
      "byteLength": 29784,
      "name": "floatBufferViews",
      "target": 34963
    },
    {
      "buffer": 0,
      "byteLength": 39664,
      "byteOffset": 29784,
      "byteStride": 8,
      "name": "floatBufferViews",
      "target": 34962
    },
    {
      "buffer": 0,
      "byteLength": 118992,
      "byteOffset": 69448,
      "byteStride": 12,
      "name": "floatBufferViews",
      "target": 34962
    }
  ],
  "buffers": [
    {
      "byteLength": 188440,
      "uri": "scene.bin"
    }
  ],
  "images": [
    {
      "uri": "textures/Atlas_Alpha_baseColor.png"
    }
  ],
  "materials": [
    {
      "alphaMode": "BLEND",
      "doubleSided": true,
      "name": "Atlas_Alpha",
      "pbrMetallicRoughness": {
        "baseColorFactor": [
          1.0,
          1.0,
          1.0,
          0.22510184677962686
        ],
        "baseColorTexture": {
          "index": 0
        },
        "metallicFactor": 0.0,
        "roughnessFactor": 0.8211145618000169
      }
    },
    {
      "doubleSided": true,
      "name": "Atlas",
      "pbrMetallicRoughness": {
        "baseColorTexture": {
          "index": 0
        },
        "metallicFactor": 0.0,
        "roughnessFactor": 0.6721572627615431
      }
    },
    {
      "doubleSided": true,
      "name": "Atlas_Shiny",
      "pbrMetallicRoughness": {
        "baseColorTexture": {
          "index": 0
        },
        "metallicFactor": 0.0,
        "roughnessFactor": 0.0
      }
    }
  ],
  "meshes": [
    {
      "name": "beehive.006_Atlas Alpha_0",
      "primitives": [
        {
          "attributes": {
            "NORMAL": 1,
            "POSITION": 0,
            "TEXCOORD_0": 2
          },
          "indices": 3,
          "material": 0,
          "mode": 4
        }
      ]
    },
    {
      "name": "beehive.006_Atlas_0",
      "primitives": [
        {
          "attributes": {
            "NORMAL": 5,
            "POSITION": 4,
            "TEXCOORD_0": 6
          },
          "indices": 7,
          "material": 1,
          "mode": 4
        }
      ]
    },
    {
      "name": "beehive.006_Atlas Shiny_0",
      "primitives": [
        {
          "attributes": {
            "NORMAL": 9,
            "POSITION": 8,
            "TEXCOORD_0": 10
          },
          "indices": 11,
          "material": 2,
          "mode": 4
        }
      ]
    }
  ],
  "nodes": [
    {
      "children": [
        1
      ],
      "matrix": [
        1.0,
        0.0,
        0.0,
        0.0,
        0.0,
        2.220446049250313e-16,
        -1.0,
        0.0,
        0.0,
        1.0,
        2.220446049250313e-16,
        0.0,
        0.0,
        0.0,
        0.0,
        1.0
      ],
      "name": "Sketchfab_model"
    },
    {
      "children": [
        2
      ],
      "matrix": [
        0.009999999776482582,
        0.0,
        0.0,
        0.0,
        0.0,
        0.0,
        0.009999999776482582,
        0.0,
        0.0,
        -0.009999999776482582,
        0.0,
        0.0,
        0.0,
        0.0,
        0.0,
        1.0
      ],
      "name": "1dd38e41cf954f31a9479e18dfc0fec0.fbx"
    },
    {
      "children": [
        3
      ],
      "name": "RootNode"
    },
    {
      "children": [
        4,
        5,
        6
      ],
      "matrix": [
        6.453961018371259,
        -8.850761143023685e-06,
        151.61582457206262,
        0.0,
        151.61582457204463,
        7.489156171474701e-05,
        -6.453961018366129,
        0.0,
        -7.444738412026679e-05,
        151.75312805173908,
        1.2027842121373169e-05,
        0.0,
        0.0,
        380.4439697265625,
        0.0,
        1.0
      ],
      "name": "beehive.006"
    },
    {
      "mesh": 0,
      "name": "beehive.006_Atlas Alpha_0"
    },
    {
      "mesh": 1,
      "name": "beehive.006_Atlas_0"
    },
    {
      "mesh": 2,
      "name": "beehive.006_Atlas Shiny_0"
    }
  ],
  "samplers": [
    {
      "magFilter": 9729,
      "minFilter": 9987,
      "wrapS": 10497,
      "wrapT": 10497
    }
  ],
  "scene": 0,
  "scenes": [
    {
      "name": "Sketchfab_Scene",
      "nodes": [
        0
      ]
    }
  ],
  "textures": [
    {
      "sampler": 0,
      "source": 0
    }
  ]
}
